<?xml version="1.0" encoding="UTF-8"?>

<svg xmlns="http://www.w3.org/2000/svg"
     width="162.56mm" height="162.56mm"
     viewBox="0 0 1920 1920">
  <path id="Selection"
        fill="#193240" stroke="black" stroke-width="1"
        d="M 917.00,48.14
           C 911.94,49.14 909.93,48.95 905.00,49.00
             905.00,49.00 888.00,50.09 888.00,50.09
             888.00,50.09 839.00,55.28 839.00,55.28
             784.20,62.49 729.65,74.51 677.00,91.34
             427.82,170.98 223.38,351.58 116.86,591.00
             25.71,795.88 14.16,1025.65 82.34,1239.00
             112.00,1331.80 157.79,1419.38 215.15,1498.00
             258.90,1557.97 312.63,1614.55 370.00,1661.58
             452.00,1728.78 545.14,1782.04 645.00,1817.69
             706.13,1839.52 764.76,1854.01 829.00,1863.27
             829.00,1863.27 895.00,1870.09 895.00,1870.09
             895.00,1870.09 905.00,1871.00 905.00,1871.00
             905.00,1871.00 925.00,1872.00 925.00,1872.00
             925.00,1872.00 995.00,1872.00 995.00,1872.00
             995.00,1872.00 1014.00,1871.00 1014.00,1871.00
             1014.00,1871.00 1025.00,1870.09 1025.00,1870.09
             1025.00,1870.09 1059.00,1867.17 1059.00,1867.17
             1115.91,1861.48 1173.23,1849.78 1228.00,1833.28
             1368.49,1790.97 1495.99,1716.44 1602.00,1615.04
             1602.00,1615.04 1618.00,1600.00 1618.00,1600.00
             1618.00,1600.00 1628.04,1589.00 1628.04,1589.00
             1723.02,1489.70 1794.72,1370.70 1837.33,1240.00
             1854.33,1187.87 1867.64,1129.45 1874.15,1075.00
             1874.15,1075.00 1879.09,1024.00 1879.09,1024.00
             1879.09,1024.00 1880.00,1014.00 1880.00,1014.00
             1880.00,1014.00 1881.00,996.00 1881.00,996.00
             1881.00,996.00 1881.00,926.00 1881.00,926.00
             1881.00,926.00 1880.00,906.00 1880.00,906.00
             1880.00,906.00 1879.09,896.00 1879.09,896.00
             1879.09,896.00 1874.15,845.00 1874.15,845.00
             1867.83,792.12 1855.82,739.82 1840.02,689.00
             1798.34,554.88 1725.04,432.41 1628.04,331.00
             1628.04,331.00 1613.00,315.00 1613.00,315.00
             1613.00,315.00 1602.00,304.96 1602.00,304.96
             1483.33,191.46 1336.86,111.03 1177.00,73.12
             1134.66,63.07 1092.27,56.16 1049.00,51.83
             1049.00,51.83 1010.00,49.00 1010.00,49.00
             1010.00,49.00 997.00,48.14 997.00,48.14
             997.00,48.14 947.00,48.14 947.00,48.14
             947.00,48.14 917.00,48.14 917.00,48.14 Z
           M 952.00,140.14
           C 952.00,140.14 969.00,140.14 969.00,140.14
             989.35,140.00 994.43,139.95 1014.00,147.21
             1041.63,157.47 1064.45,179.05 1074.27,207.00
             1077.17,215.23 1078.89,218.90 1079.00,228.00
             1079.00,228.00 1079.00,243.00 1079.00,243.00
             1078.97,261.42 1069.33,282.02 1057.68,296.00
             1046.09,309.90 1030.79,319.67 1014.17,326.29
             1014.17,326.29 1006.00,329.63 1006.00,329.63
             1006.00,329.63 993.00,332.12 993.00,332.12
             984.45,333.89 983.48,334.99 974.00,335.00
             974.00,335.00 963.00,335.00 963.00,335.00
             955.47,334.91 952.84,333.54 946.00,332.12
             946.00,332.12 934.00,329.79 934.00,329.79
             904.41,321.01 878.18,299.81 866.31,271.00
             859.67,254.88 859.97,246.69 860.00,230.00
             860.02,215.33 867.10,198.14 875.08,186.00
             880.87,177.19 891.41,166.61 900.00,160.57
             916.26,149.13 932.46,143.11 952.00,140.14 Z
           M 1146.00,371.00
           C 1148.03,386.35 1147.00,421.64 1147.00,439.00
             1158.14,439.62 1159.98,445.01 1160.00,455.00
             1160.00,455.00 1160.00,490.00 1160.00,490.00
             1160.00,493.85 1160.35,503.85 1159.35,507.00
             1157.40,513.14 1152.84,514.67 1147.00,515.00
             1147.00,515.00 1147.00,593.00 1147.00,593.00
             1147.00,593.00 1148.00,608.00 1148.00,608.00
             1148.00,608.00 1148.00,622.00 1148.00,622.00
             1148.00,622.00 1105.00,628.13 1105.00,628.13
             1105.00,628.13 1035.00,638.13 1035.00,638.13
             1035.00,638.13 990.00,644.18 990.00,644.18
             990.00,644.18 972.00,647.00 972.00,647.00
             972.00,647.00 949.00,645.71 949.00,645.71
             949.00,645.71 937.00,642.44 937.00,642.44
             937.00,642.44 901.00,637.27 901.00,637.27
             901.00,637.27 823.00,626.13 823.00,626.13
             823.00,626.13 780.04,620.00 780.04,620.00
             780.04,620.00 780.04,603.00 780.04,603.00
             780.04,603.00 781.00,591.00 781.00,591.00
             781.00,591.00 781.00,520.00 781.00,520.00
             770.45,518.87 769.02,513.37 769.00,504.00
             769.00,504.00 769.00,468.00 769.00,468.00
             769.00,464.02 768.63,453.20 769.65,450.00
             771.46,444.31 775.52,442.58 781.00,442.00
             781.00,424.04 779.95,384.57 782.00,369.00
             782.00,369.00 825.00,375.27 825.00,375.27
             825.00,375.27 902.00,386.27 902.00,386.27
             902.00,386.27 949.00,393.13 949.00,393.13
             949.00,393.13 970.00,395.99 970.00,395.99
             970.00,395.99 1033.00,387.27 1033.00,387.27
             1033.00,387.27 1110.00,376.27 1110.00,376.27
             1110.00,376.27 1146.00,371.00 1146.00,371.00 Z
           M 792.00,382.00
           C 792.00,382.00 792.00,442.00 792.00,442.00
             800.25,444.44 802.88,448.61 803.00,457.00
             803.00,457.00 803.00,504.00 803.00,504.00
             802.95,513.09 800.58,518.17 791.00,520.00
             791.00,520.00 791.00,611.00 791.00,611.00
             791.00,611.00 833.00,616.73 833.00,616.73
             833.00,616.73 907.00,627.27 907.00,627.27
             907.00,627.27 943.00,632.00 943.00,632.00
             943.00,632.00 943.00,403.00 943.00,403.00
             943.00,403.00 902.00,397.27 902.00,397.27
             902.00,397.27 835.00,387.73 835.00,387.73
             835.00,387.73 792.00,382.00 792.00,382.00 Z
           M 985.00,405.00
           C 985.00,405.00 985.00,634.00 985.00,634.00
             985.00,634.00 1021.00,629.27 1021.00,629.27
             1021.00,629.27 1095.00,618.73 1095.00,618.73
             1095.00,618.73 1137.00,613.00 1137.00,613.00
             1137.00,613.00 1137.00,521.00 1137.00,521.00
             1136.83,512.23 1133.76,514.94 1130.01,508.96
             1127.78,505.42 1128.01,501.98 1128.00,498.00
             1128.00,498.00 1128.00,455.00 1128.00,455.00
             1128.09,437.70 1135.97,447.08 1136.00,432.00
             1136.00,432.00 1136.00,384.00 1136.00,384.00
             1136.00,384.00 1093.00,389.73 1093.00,389.73
             1093.00,389.73 1026.00,399.27 1026.00,399.27
             1026.00,399.27 985.00,405.00 985.00,405.00 Z
           M 954.00,634.00
           C 954.00,634.00 974.00,636.00 974.00,636.00
             974.00,636.00 974.00,576.00 974.00,576.00
             974.00,576.00 975.00,561.00 975.00,561.00
             975.00,561.00 975.00,416.00 975.00,416.00
             975.00,416.00 974.01,408.74 974.01,408.74
             974.01,408.74 969.98,407.39 969.98,407.39
             969.98,407.39 954.60,409.60 954.60,409.60
             954.60,409.60 953.00,418.00 953.00,418.00
             953.00,418.00 953.00,561.00 953.00,561.00
             953.00,561.00 954.00,578.00 954.00,578.00
             954.00,578.00 954.00,634.00 954.00,634.00 Z
           M 777.00,1029.00
           C 790.63,1034.10 798.46,1035.96 811.00,1044.91
             849.02,1072.04 868.95,1120.42 889.25,1161.00
             889.25,1161.00 922.25,1228.00 922.25,1228.00
             922.25,1228.00 950.00,1285.00 950.00,1285.00
             950.00,1285.00 798.00,1285.00 798.00,1285.00
             798.00,1285.00 773.31,1234.00 773.31,1234.00
             773.31,1234.00 750.25,1187.00 750.25,1187.00
             750.25,1187.00 732.25,1150.00 732.25,1150.00
             721.89,1129.29 707.31,1103.14 687.00,1091.02
             675.80,1084.33 662.97,1080.41 650.00,1079.04
             650.00,1079.04 640.00,1079.04 640.00,1079.04
             640.00,1079.04 628.00,1078.00 628.00,1078.00
             628.00,1078.00 597.00,1078.00 597.00,1078.00
             597.00,1078.00 597.00,1285.00 597.00,1285.00
             597.00,1285.00 455.00,1285.00 455.00,1285.00
             455.00,1285.00 455.00,738.00 455.00,738.00
             455.00,738.00 697.00,738.00 697.00,738.00
             697.00,738.00 731.00,740.85 731.00,740.85
             765.40,744.96 800.10,753.07 829.00,773.02
             856.48,792.00 870.68,818.88 877.00,851.00
             878.24,857.30 879.92,868.74 880.00,875.00
             880.00,875.00 880.00,901.00 880.00,901.00
             879.97,921.48 872.73,948.25 862.57,966.00
             849.18,989.40 830.96,1005.24 807.00,1017.25
             799.16,1021.18 785.43,1027.68 777.00,1029.00 Z
           M 1542.00,1285.00
           C 1542.00,1285.00 1399.00,1285.00 1399.00,1285.00
             1399.00,1285.00 1390.00,1258.00 1390.00,1258.00
             1390.00,1258.00 1372.81,1208.00 1372.81,1208.00
             1371.12,1203.54 1367.08,1188.13 1363.73,1186.02
             1361.76,1184.79 1358.28,1185.00 1356.00,1185.00
             1356.00,1185.00 1155.00,1185.00 1155.00,1185.00
             1152.70,1185.00 1149.26,1184.79 1147.27,1186.02
             1143.80,1188.18 1140.72,1199.85 1139.33,1204.00
             1139.33,1204.00 1118.69,1263.00 1118.69,1263.00
             1117.25,1267.06 1113.17,1281.99 1110.35,1284.01
             1108.61,1285.25 1105.10,1285.00 1103.00,1285.00
             1103.00,1285.00 968.00,1285.00 968.00,1285.00
             968.00,1285.00 987.58,1232.00 987.58,1232.00
             987.58,1232.00 1017.95,1150.00 1017.95,1150.00
             1017.95,1150.00 1107.42,908.00 1107.42,908.00
             1107.42,908.00 1147.42,800.00 1147.42,800.00
             1147.42,800.00 1170.00,738.00 1170.00,738.00
             1170.00,738.00 1332.00,738.00 1332.00,738.00
             1332.00,738.00 1339.35,738.99 1339.35,738.99
             1339.35,738.99 1343.69,748.00 1343.69,748.00
             1343.69,748.00 1350.81,767.00 1350.81,767.00
             1350.81,767.00 1387.05,865.00 1387.05,865.00
             1387.05,865.00 1488.42,1139.00 1488.42,1139.00
             1488.42,1139.00 1521.42,1228.00 1521.42,1228.00
             1521.42,1228.00 1542.00,1285.00 1542.00,1285.00 Z
           M 597.00,840.00
           C 597.00,840.00 597.00,981.00 597.00,981.00
             597.00,981.00 650.00,981.00 650.00,981.00
             650.00,981.00 670.00,980.00 670.00,980.00
             682.73,979.85 702.17,975.48 713.00,968.77
             729.97,958.25 737.77,938.40 738.00,919.00
             738.28,894.44 737.65,867.14 714.00,852.47
             703.36,845.87 683.51,841.15 671.00,841.00
             671.00,841.00 649.00,840.00 649.00,840.00
             649.00,840.00 597.00,840.00 597.00,840.00 Z
           M 1255.00,868.00
           C 1255.00,868.00 1243.05,903.00 1243.05,903.00
             1243.05,903.00 1232.69,933.00 1232.69,933.00
             1232.69,933.00 1197.33,1036.00 1197.33,1036.00
             1197.33,1036.00 1181.00,1084.00 1181.00,1084.00
             1181.00,1084.00 1329.00,1084.00 1329.00,1084.00
             1329.00,1084.00 1315.67,1043.00 1315.67,1043.00
             1315.67,1043.00 1285.00,954.00 1285.00,954.00
             1285.00,954.00 1263.42,891.00 1263.42,891.00
             1263.42,891.00 1255.00,868.00 1255.00,868.00 Z
           M 672.00,1426.29
           C 691.09,1424.48 708.70,1427.08 722.99,1441.04
             732.12,1449.97 737.85,1463.20 738.00,1476.00
             738.26,1498.30 731.59,1515.45 711.00,1526.69
             698.52,1533.50 689.61,1533.16 676.00,1533.00
             669.68,1532.92 663.83,1531.37 658.00,1528.99
             626.69,1516.19 616.58,1476.74 634.55,1449.00
             643.18,1435.67 656.74,1428.81 672.00,1426.29 Z
           M 903.00,1426.30
           C 916.46,1424.96 929.87,1425.90 942.00,1432.26
             944.95,1433.81 951.65,1437.97 952.83,1441.07
             954.32,1444.97 946.59,1451.39 943.00,1450.75
             941.00,1450.39 936.90,1447.02 935.00,1445.75
             931.36,1443.32 927.29,1441.44 923.00,1440.52
             899.05,1435.37 874.29,1452.93 874.00,1478.00
             873.70,1504.51 894.10,1521.48 920.01,1518.92
             925.14,1518.42 930.63,1516.22 935.00,1513.53
             936.92,1512.35 941.35,1508.69 943.00,1508.32
             946.30,1507.58 951.91,1513.04 952.66,1516.00
             953.68,1520.01 946.89,1524.01 944.00,1525.74
             931.52,1533.23 921.89,1533.16 908.00,1533.00
             881.23,1532.68 858.32,1509.69 858.00,1483.00
             857.89,1473.37 858.09,1466.07 862.04,1457.00
             869.69,1439.43 884.66,1429.72 903.00,1426.30 Z
           M 589.00,1497.00
           C 589.00,1497.00 613.00,1532.00 613.00,1532.00
             608.55,1532.00 597.66,1532.93 594.32,1530.40
             592.11,1528.73 581.18,1512.51 578.72,1509.00
             576.92,1506.43 574.67,1502.52 571.91,1501.02
             569.67,1499.80 566.50,1500.00 564.00,1500.00
             564.00,1500.00 541.00,1500.00 541.00,1500.00
             541.00,1500.00 541.00,1532.00 541.00,1532.00
             541.00,1532.00 525.00,1532.00 525.00,1532.00
             525.00,1532.00 525.00,1427.00 525.00,1427.00
             525.00,1427.00 562.00,1427.00 562.00,1427.00
             573.57,1427.00 583.42,1426.45 594.00,1432.53
             612.63,1443.23 616.71,1470.56 603.47,1486.96
             599.58,1491.79 594.58,1494.58 589.00,1497.00 Z
           M 853.00,1532.00
           C 849.82,1532.00 838.83,1532.59 836.70,1531.01
             833.18,1528.41 828.26,1509.71 823.78,1507.02
             821.74,1505.80 818.34,1506.00 816.00,1506.00
             816.00,1506.00 779.00,1506.00 779.00,1506.00
             776.74,1506.00 773.32,1505.78 771.39,1507.02
             767.54,1509.50 762.70,1527.00 759.19,1530.40
             756.54,1532.97 745.87,1532.00 742.00,1532.00
             742.00,1532.00 755.69,1502.00 755.69,1502.00
             755.69,1502.00 778.75,1451.00 778.75,1451.00
             780.87,1446.54 787.12,1430.10 790.39,1428.02
             792.48,1426.69 797.47,1426.96 800.00,1427.00
             801.79,1427.04 803.97,1426.97 805.51,1428.02
             807.23,1429.20 808.82,1433.06 809.75,1435.00
             809.75,1435.00 817.00,1451.00 817.00,1451.00
             817.00,1451.00 842.42,1507.00 842.42,1507.00
             845.49,1514.02 851.38,1525.12 853.00,1532.00 Z
           M 1067.00,1532.00
           C 1063.82,1532.00 1052.83,1532.59 1050.70,1531.01
             1047.18,1528.41 1042.26,1509.71 1037.78,1507.02
             1035.74,1505.80 1032.34,1506.00 1030.00,1506.00
             1030.00,1506.00 993.00,1506.00 993.00,1506.00
             990.74,1506.00 987.32,1505.78 985.39,1507.02
             981.54,1509.50 976.70,1527.00 973.19,1530.40
             970.54,1532.97 959.87,1532.00 956.00,1532.00
             956.00,1532.00 969.69,1502.00 969.69,1502.00
             969.69,1502.00 992.75,1451.00 992.75,1451.00
             994.87,1446.54 1001.12,1430.10 1004.39,1428.02
             1006.48,1426.69 1011.47,1426.96 1014.00,1427.00
             1015.79,1427.04 1017.97,1426.97 1019.51,1428.02
             1021.23,1429.20 1022.82,1433.06 1023.75,1435.00
             1023.75,1435.00 1031.00,1451.00 1031.00,1451.00
             1031.00,1451.00 1056.42,1507.00 1056.42,1507.00
             1059.49,1514.02 1065.38,1525.12 1067.00,1532.00 Z
           M 1082.00,1532.00
           C 1082.00,1532.00 1082.00,1427.00 1082.00,1427.00
             1082.00,1427.00 1117.00,1427.00 1117.00,1427.00
             1117.00,1427.00 1133.00,1427.00 1133.00,1427.00
             1146.16,1427.16 1161.80,1433.37 1170.83,1443.04
             1188.68,1462.16 1188.68,1496.84 1170.83,1515.96
             1161.24,1526.23 1145.89,1531.93 1132.00,1532.00
             1132.00,1532.00 1082.00,1532.00 1082.00,1532.00 Z
           M 1281.00,1427.00
           C 1281.00,1427.00 1281.00,1440.00 1281.00,1440.00
             1281.00,1440.00 1222.00,1440.00 1222.00,1440.00
             1222.00,1440.00 1222.00,1472.00 1222.00,1472.00
             1222.00,1472.00 1275.00,1472.00 1275.00,1472.00
             1275.00,1472.00 1275.00,1485.00 1275.00,1485.00
             1275.00,1485.00 1222.00,1485.00 1222.00,1485.00
             1222.00,1485.00 1222.00,1519.00 1222.00,1519.00
             1222.00,1519.00 1283.00,1519.00 1283.00,1519.00
             1283.00,1519.00 1283.00,1532.00 1283.00,1532.00
             1283.00,1532.00 1206.00,1532.00 1206.00,1532.00
             1206.00,1532.00 1206.00,1427.00 1206.00,1427.00
             1206.00,1427.00 1281.00,1427.00 1281.00,1427.00 Z
           M 1362.00,1499.00
           C 1362.00,1499.00 1364.00,1499.00 1364.00,1499.00
             1365.91,1492.46 1370.72,1485.98 1374.15,1480.00
             1374.15,1480.00 1395.72,1443.00 1395.72,1443.00
             1397.67,1439.57 1403.09,1429.00 1406.33,1427.57
             1407.93,1426.86 1411.19,1427.00 1413.00,1427.00
             1413.00,1427.00 1419.00,1427.00 1419.00,1427.00
             1419.00,1427.00 1419.00,1532.00 1419.00,1532.00
             1419.00,1532.00 1404.00,1532.00 1404.00,1532.00
             1404.00,1532.00 1404.00,1483.00 1404.00,1483.00
             1404.00,1483.00 1403.04,1471.00 1403.04,1471.00
             1403.04,1471.00 1403.04,1459.00 1403.04,1459.00
             1403.04,1459.00 1376.00,1504.00 1376.00,1504.00
             1373.91,1507.48 1368.41,1518.73 1364.79,1519.70
             1357.71,1521.59 1354.29,1512.82 1351.40,1508.00
             1351.40,1508.00 1332.80,1477.00 1332.80,1477.00
             1329.56,1471.61 1324.85,1464.85 1323.00,1459.00
             1323.00,1459.00 1322.00,1484.00 1322.00,1484.00
             1322.00,1484.00 1322.00,1532.00 1322.00,1532.00
             1322.00,1532.00 1306.00,1532.00 1306.00,1532.00
             1306.00,1532.00 1306.00,1427.00 1306.00,1427.00
             1306.00,1427.00 1313.00,1427.00 1313.00,1427.00
             1314.69,1427.01 1317.25,1426.93 1318.79,1427.60
             1322.29,1429.10 1327.34,1439.41 1329.42,1443.00
             1329.42,1443.00 1350.20,1478.00 1350.20,1478.00
             1353.72,1483.89 1359.76,1492.94 1362.00,1499.00 Z
           M 1484.00,1481.00
           C 1485.92,1474.92 1490.53,1468.46 1493.95,1463.00
             1493.95,1463.00 1508.58,1439.00 1508.58,1439.00
             1513.81,1430.55 1513.53,1427.06 1523.00,1427.00
             1523.00,1427.00 1532.00,1427.00 1532.00,1427.00
             1532.00,1427.00 1501.80,1478.00 1501.80,1478.00
             1495.92,1487.68 1490.02,1493.33 1490.00,1505.00
             1490.00,1505.00 1490.00,1532.00 1490.00,1532.00
             1490.00,1532.00 1475.00,1532.00 1475.00,1532.00
             1475.00,1532.00 1475.00,1505.00 1475.00,1505.00
             1474.98,1493.03 1468.87,1486.90 1462.81,1477.00
             1462.81,1477.00 1433.00,1427.00 1433.00,1427.00
             1433.00,1427.00 1444.00,1427.00 1444.00,1427.00
             1453.02,1427.17 1454.49,1433.88 1458.95,1441.00
             1458.95,1441.00 1484.00,1481.00 1484.00,1481.00 Z
           M 540.00,1439.00
           C 540.00,1439.00 540.00,1488.00 540.00,1488.00
             553.45,1484.73 571.50,1490.56 585.00,1482.64
             599.08,1474.37 598.82,1449.63 582.00,1442.76
             568.60,1437.29 552.38,1442.01 540.00,1439.00 Z
           M 682.00,1439.71
           C 672.65,1440.17 665.90,1441.13 658.00,1446.79
             640.00,1459.67 636.08,1487.81 650.33,1505.00
             658.65,1515.05 668.29,1518.77 681.00,1519.26
             694.82,1519.78 707.04,1514.41 715.21,1503.00
             728.14,1484.94 722.92,1457.14 704.00,1445.47
             696.39,1440.77 690.70,1439.90 682.00,1439.71 Z
           M 1098.00,1440.00
           C 1098.00,1440.00 1098.00,1519.00 1098.00,1519.00
             1113.68,1519.00 1135.17,1521.10 1149.00,1513.68
             1173.25,1500.66 1174.93,1462.34 1152.00,1447.10
             1137.47,1437.45 1115.00,1440.00 1098.00,1440.00 Z
           M 797.00,1445.00
           C 797.00,1445.00 776.00,1493.00 776.00,1493.00
             776.00,1493.00 819.00,1493.00 819.00,1493.00
             819.00,1493.00 805.86,1462.00 805.86,1462.00
             805.86,1462.00 797.00,1445.00 797.00,1445.00 Z
           M 1011.00,1445.00
           C 1011.00,1445.00 990.00,1493.00 990.00,1493.00
             990.00,1493.00 1033.00,1493.00 1033.00,1493.00
             1033.00,1493.00 1019.86,1462.00 1019.86,1462.00
             1019.86,1462.00 1011.00,1445.00 1011.00,1445.00 Z" />
</svg>


